# AST/ASF file generated using VICON BodyLanguage
# -----------------------------------------------
:version 1.10
:name VICON
:units
  mass 1.0
  length 0.45
  angle deg
:documentation
   .ast/.asf automatically generated from VICON data using
   VICON BodyBuilder and BodyLanguage model FoxedUp or BRILLIANT.MOD
:root
   order TX TY TZ RX RY RZ
   axis XYZ
   position 0 0 0  
   orientation 0 0 0 
:bonedata
  begin
     id 1 
     name lhipjoint
     direction 0.682418 -0.694059 0.22932 
     length 2.25561 
     axis 0 0 0  XYZ
  end
  begin
     id 2 
     name lfemur
     direction 0.34202 -0.939693 0  
     length 6.96448  
     axis 0 0 20  XYZ
    dof rx ry rz
    limits (-160.0 20.0)
           (-70.0 70.0)
           (-60.0 70.0)
  end
  begin
     id 3 
     name ltibia
     direction 0.34202 -0.939693 0   
     length 6.88553   
     axis 0 0 20   XYZ
    dof rx
    limits (-10.0 170.0)
  end
  begin
     id 4 
     name lfoot
     direction 0.0723587 -0.198804 0.977364   
     length 1.88518   
     axis -90 7.62852e-016 20   XYZ
    dof rx rz
    limits (-45.0 90.0)
           (-70.0 20.0)
  end
  begin
     id 5 
     name ltoes
     direction 1.53558e-011 -4.21962e-011 1   
     length 0.952124   
     axis -90 7.62852e-016 20   XYZ
    dof rx
    limits (-90.0 20.0)
  end
  begin
     id 6 
     name rhipjoint
     direction -0.657603 -0.71533 0.236348   
     length 2.18854  
     axis 0 0 0  XYZ 
  end
  begin
     id 7 
     name rfemur
     direction -0.34202 -0.939693 0   
     length 6.86686   
     axis 0 0 -20   XYZ
    dof rx ry rz
    limits (-160.0 20.0)
           (-70.0 70.0)
           (-70.0 60.0)
  end
  begin
     id 8 
     name rtibia
     direction -0.34202 -0.939693 0   
     length 6.59503   
     axis 0 0 -20   XYZ
    dof rx
    limits (-10.0 170.0)
 end
 begin
     id 9 
     name rfoot
     direction -0.101977 -0.280179 0.954516   
     length 1.93723  
     axis -90 -7.62852e-016 -20   XYZ
    dof rx rz
    limits (-45.0 90.0)
           (-20.0 70.0)
  end
  begin
     id 10 
     name rtoes
     direction -1.53564e-011 -4.21897e-011 1   
     length 0.970315   
     axis -90 -7.62852e-016 -20   XYZ
    dof rx
    limits (-90.0 20.0)
  end
  begin
     id 11 
     name lowerback
     direction -0.0339559 0.999421 -0.00235966   
     length 1.88543   
     axis 0 0 0   XYZ
    dof rx ry rz
    limits (-20.0 45.0)
           (-30.0 30.0)
           (-30.0 30.0)
  end
  begin
     id 12 
     name upperback
     direction 0.00401003 0.999739 0.0224689   
     length 1.8856   
     axis 0 0 0   XYZ
    dof rx ry rz
    limits (-20.0 45.0)
           (-30.0 30.0)
           (-30.0 30.0)
  end
  begin
     id 13 
     name thorax
     direction 0.0198619 0.999546 0.0226536   
     length 1.88352   
     axis 0 0 0   XYZ
    dof rx ry rz
    limits (-20.0 45.0)
           (-30.0 30.0)
           (-30.0 30.0)
  end
  begin
     id 14 
     name lowerneck
     direction -0.0461848 0.998632 0.0245198   
     length 1.34895   
     axis 0 0 0   XYZ
    dof rx ry rz
    limits (-20.0 45.0)
           (-30.0 30.0)
           (-30.0 30.0)
  end
  begin
     id 15 
     name upperneck
     direction -0.0180627 0.994724 -0.100984   
     length 1.35214   
     axis 0 0 0   XYZ
    dof rx ry rz
    limits (-20.0 45.0)
           (-30.0 30.0)
           (-30.0 30.0)
  end
  begin
     id 16
     name head
     direction -0.00374772 0.999293 -0.037403  
     length 1.3568  
     axis 0 0 0   XYZ
    dof rx ry rz
    limits (-20.0 45.0)
           (-30.0 30.0)
           (-30.0 30.0)
  end
  begin
     id 17 
     name lclavicle
     direction 0.971773 0.191119 0.138311  
     length 2.84954  
     axis 0 0 0   XYZ
    dof ry rz
    limits (-20.0 10.0)
           (0.0 20.0)
  end
  begin
     id 18 
     name lhumerus
     direction 1 -4.4897e-011 -2.43761e-027   
     length 4.40919   
     axis 180 -30 -90   XYZ
    dof rx ry rz
    limits (-60.0 90.0)
           (-90.0 90.0)
           (-90.0 90.0)
  end
  begin
     id 19
     name lradius
     direction 1 -4.4896e-011 -9.1621e-027   
     length 3.03857   
     axis 180 -30 -90   XYZ
    dof rx
    limits (-10.0 170.0)
  end
  begin
     id 20
     name lwrist
     direction 1 -4.4896e-011 -1.41363e-026   
     length 1.51928   
     axis 1.07133e-014 90 90   XYZ
    dof ry
    limits (-180.0 0.0)
 end
  begin
     id 21 
     name lhand
     direction 1 -4.48978e-011 -2.82725e-026   
     length 0.523208   
     axis 1.80403e-014 90 90   XYZ
    dof rx rz
    limits (-90.0 90.0)
           (-45.0 45.0)
  end
  begin
     id 22 
     name lfingers
     direction 1 -4.48977e-011 -5.6545e-026   
     length 0.421824   
     axis 3.60806e-014 90 90   XYZ
    dof rx
    limits (0.0 90.0)
  end
  begin
     id 23
     name lthumb
     direction 0.707107 -6.34962e-011 0.707107   
     length 0.605657   
     axis -90 45 2.85299e-015   XYZ
    dof rx rz
    limits (-45.0 45.0)
           (-45.0 45.0)
  end
  begin
     id 24 
     name rclavicle
     direction -0.957247 0.24311 0.156766   
     length 3.12406  
     axis 0 0 0   XYZ 
    dof ry rz
    limits (-10.0 20.0)
           (-20.0 0.0)
  end
  begin
     id 25 
     name rhumerus
     direction -1 -4.48964e-011 -1.70632e-027  
     length 4.61969   
     axis 180 30 90   XYZ
    dof rx ry rz
    limits (-90.0 60.0)
           (-90.0 90.0)
           (-90.0 90.0)
  end
  begin
     id 26 
     name rradius
     direction -1 -4.48966e-011 -6.60395e-027   
     length 3.09382   
     axis 180 30 90   XYZ
    dof rx
    limits (-10.0 170.0)
  end
  begin
     id 27 
     name rwrist
     direction -1 -4.48963e-011 -1.41363e-026   
     length 1.54691   
     axis 1.07133e-014 -90 -90   XYZ
    dof ry
    limits (-180.0 0.0)
  end
  begin
     id 28
     name rhand
     direction -1 -4.49013e-011 -2.82725e-026   
     length 0.500896   
     axis 1.80403e-014 -90 -90   XYZ
    dof rx rz
    limits (-90.0 90.0)
           (-45.0 45.0)
  end
  begin
     id 29
     name rfingers
     direction -1 -4.48902e-011 -5.6545e-026   
     length 0.403835   
     axis 3.60806e-014 -90 -90   XYZ
    dof rx
    limits (0.0 90.0)
  end
  begin
     id 30
     name rthumb
     direction -0.707107 -6.34953e-011 0.707107   
     length 0.579829   
     axis -90 -45 -2.85299e-015   XYZ
    dof rx rz
    limits (-45.0 45.0)
           (-45.0 45.0)
  end
:hierarchy
  begin
    root lhipjoint rhipjoint lowerback
    lhipjoint lfemur
    lfemur ltibia
    ltibia lfoot
    lfoot ltoes
    rhipjoint rfemur
    rfemur rtibia
    rtibia rfoot
    rfoot rtoes
    lowerback upperback
    upperback thorax
    thorax lowerneck lclavicle rclavicle
    lowerneck upperneck
    upperneck head
    lclavicle lhumerus
    lhumerus lradius
    lradius lwrist
    lwrist lhand lthumb
    lhand lfingers
    rclavicle rhumerus
    rhumerus rradius
    rradius rwrist
    rwrist rhand rthumb
    rhand rfingers
  end

#!OML:ASF E:\madness\Project 1\Capture day 1\Session 1\Female1.ASF
:FULLY-SPECIFIED
:DEGREES
353
root 7.24386 12.9667 1.08578 -159.465 -69.8074 181.238
lowerback 29.497 2.01967 -5.20074
upperback 7.76139 0.133133 -0.27158
thorax -7.51698 -0.258266 2.70028
lowerneck -6.05345 0.350877 -1.90278
upperneck -23.7079 -1.48359 -3.03022
head -6.24553 -1.0005 -0.529882
rclavicle -2.38542e-015 1.11319e-014
rhumerus 77.3763 -2.35242 -60.5523
rradius 126.795
rwrist -28.358
rhand -13.696 -46.248
rfingers 7.12502
rthumb 12.4222 -75.8589
lclavicle -2.38542e-015 1.11319e-014
lhumerus 60.8868 -11.0195 66.7278
lradius 131.01
lwrist 9.33085
lhand -54.5466 -21.8746
lfingers 7.12502
lthumb -26.9464 6.22406
rfemur -73.2671 -1.12616 14.7981
rtibia 81.7242
rfoot -27.7406 -4.09593
rtoes -12.0502
lfemur -71.8904 0.551531 -19.098
ltibia 85.216
lfoot -26.0303 19.074
ltoes -9.60348
354
root 7.26326 12.9429 1.07265 -159.375 -69.8581 181.006
lowerback 29.7671 1.99404 -5.04296
upperback 7.86032 0.101285 -0.376926
thorax -7.53221 -0.283792 2.50381
lowerneck -6.0373 0.451078 -2.24058
upperneck -23.8295 -1.2777 -2.68164
head -6.2847 -0.891771 -0.367167
rclavicle 1.15295e-014 3.85642e-014
rhumerus 77.3947 -2.48298 -60.624
rradius 126.986
rwrist -28.2012
rhand -13.8735 -46.3504
rfingers 7.12502
rthumb 12.2511 -75.9716
lclavicle 1.15295e-014 3.85642e-014
lhumerus 61.0952 -11.0041 66.5423
lradius 131.011
lwrist 9.53419
lhand -54.4975 -21.337
lfingers 7.12502
lthumb -26.8995 6.76889
rfemur -73.3834 -1.22719 14.8739
rtibia 82.0078
rfoot -27.7373 -4.0393
rtoes -11.8219
lfemur -71.9718 0.581197 -19.062
ltibia 85.4327
lfoot -26.21 18.6985
ltoes -9.1132
355
root 7.27749 12.929 1.05738 -159.306 -69.7767 180.771
lowerback 29.9109 2.05517 -5.10417
upperback 7.96848 0.136172 -0.371064
thorax -7.48074 -0.27768 2.5342
lowerneck -5.30149 0.614038 -2.63727
upperneck -24.4611 -1.10858 -2.69184
head -6.61417 -0.760044 -0.304197
rclavicle 3.45885e-014 7.63333e-014
rhumerus 77.431 -2.45053 -60.5434
rradius 127.199
rwrist -28.09
rhand -14.1088 -46.0745
rfingers 7.12502
rthumb 12.0242 -75.7091
lclavicle 3.45885e-014 7.63333e-014
lhumerus 61.0293 -11.0204 66.6845
lradius 131.001
lwrist 9.65676
lhand -54.4368 -20.3285
lfingers 7.12502
lthumb -26.8413 7.78635
rfemur -73.3992 -1.2517 14.9088
rtibia 82.2579
rfoot -27.7755 -3.93159
rtoes -11.3418
lfemur -71.9048 0.716077 -19.0594
ltibia 85.613
lfoot -26.5803 18.2029
ltoes -8.06082
356
root 7.29 12.9154 1.03857 -159.262 -69.538 180.634
lowerback 30.0994 2.18881 -5.18696
upperback 7.97935 0.252107 -0.432645
thorax -7.56687 -0.224667 2.47279
lowerneck -5.99188 0.571914 -2.06963
upperneck -24.0455 -1.22497 -3.15325
head -6.36523 -0.852299 -0.549013
rclavicle 3.18055e-015 -1.43125e-014
rhumerus 77.3186 -2.48956 -60.5181
rradius 127.283
rwrist -28.0196
rhand -13.7328 -45.8902
rfingers 7.12502
rthumb 12.3867 -75.5032
lclavicle 3.18055e-015 -1.43125e-014
lhumerus 60.8872 -11.2072 66.7637
lradius 130.993
lwrist 9.89855
lhand -54.475 -18.8086
lfingers 7.12502
lthumb -26.8779 9.30061
rfemur -73.5014 -1.12475 14.9365
rtibia 82.506
rfoot -27.793 -3.85632
rtoes -11.066
lfemur -71.8737 1.05275 -19.1193
ltibia 85.8168
lfoot -26.8429 17.9785
ltoes -7.62459
357
root 7.30424 12.8912 1.01901 -159.187 -69.3931 180.541
lowerback 30.2204 2.29049 -5.20478
upperback 7.993 0.355663 -0.477442
thorax -7.61663 -0.177739 2.39627
lowerneck -6.43716 0.551176 -1.63522
upperneck -23.7165 -1.32499 -3.64852
head -6.18757 -0.916209 -0.78141
rclavicle -9.54166e-015 -2.5842e-014
rhumerus 77.2589 -2.68381 -60.4676
rradius 127.319
rwrist -28.0488
rhand -13.4725 -45.9137
rfingers 7.12502
rthumb 12.6377 -75.5114
lclavicle -9.54166e-015 -2.5842e-014
lhumerus 60.9146 -11.3267 66.7425
lradius 131
lwrist 10.2644
lhand -54.5188 -16.8007
lfingers 7.12502
lthumb -26.9199 11.3021
rfemur -73.7491 -1.04441 15.0154
rtibia 82.7884
rfoot -27.8151 -3.88105
rtoes -11.1534
lfemur -72.0362 1.344 -19.1648
ltibia 86.0533
lfoot -26.8672 17.9794
ltoes -8.23609
